<svg xmlns="http://www.w3.org/2000/svg" viewBox="0 0 40 40">
  <path d="M36.8889 40L22.8889 26C21.7778 26.8889 20.5 27.5926 19.0556 28.1111C17.6111 28.6296 16.0741 28.8889 14.4444 28.8889C10.4074 28.8889 6.99111 27.4904 4.19556 24.6933C1.4 21.8963 0.00148266 18.48 1.17578e-06 14.4444C-0.00148031 10.4089 1.39704 6.99259 4.19556 4.19556C6.99408 1.39852 10.4104 0 14.4444 0C18.4785 0 21.8956 1.39852 24.6956 4.19556C27.4956 6.99259 28.8933 10.4089 28.8889 14.4444C28.8889 16.0741 28.6296 17.6111 28.1111 19.0556C27.5926 20.5 26.8889 21.7778 26 22.8889L40 36.8889L36.8889 40ZM14.4444 24.4444C17.2222 24.4444 19.5837 23.4726 21.5289 21.5289C23.4741 19.5852 24.4459 17.2237 24.4444 14.4444C24.443 11.6652 23.4711 9.30445 21.5289 7.36222C19.5867 5.42 17.2252 4.44741 14.4444 4.44444C11.6637 4.44148 9.30297 5.41407 7.36222 7.36222C5.42148 9.31037 4.44889 11.6711 4.44445 14.4444C4.44 17.2178 5.41259 19.5793 7.36222 21.5289C9.31185 23.4785 11.6726 24.4504 14.4444 24.4444Z"/>
</svg>